<?xml version="1.0" standalone="no"?>
<!DOCTYPE svg PUBLIC "-//W3C//DTD SVG 20010904//EN"
 "http://www.w3.org/TR/2001/REC-SVG-20010904/DTD/svg10.dtd">
<svg version="1.0" xmlns="http://www.w3.org/2000/svg"
 width="1600.000000pt" height="1600.000000pt" viewBox="0 0 1600.000000 1600.000000"
 preserveAspectRatio="xMidYMid meet">

<g transform="translate(0.000000,1600.000000) scale(0.100000,-0.100000)"
fill="#000000" stroke="none">
<path d="M8050 15698 c0 -92 -371 -2127 -576 -3163 -285 -1435 -391 -1869
-565 -2304 -70 -174 -225 -484 -306 -613 -215 -341 -465 -602 -708 -739 l-60
-34 110 -7 c247 -15 449 -85 672 -234 513 -341 942 -1087 1238 -2151 82 -294
193 -808 196 -911 1 -28 5 -18 15 38 106 566 187 891 328 1307 348 1027 837
1676 1424 1887 96 34 245 64 365 72 l98 7 -61 33 c-102 54 -208 140 -345 278
-393 396 -691 989 -890 1771 -164 643 -589 2828 -885 4550 -23 132 -44 242
-46 244 -2 2 -4 -11 -4 -31z"/>
<path d="M3645 9925 c32 -98 166 -581 215 -775 424 -1690 447 -2903 67 -3465
-43 -62 -150 -176 -202 -213 l-30 -21 108 -1 c230 0 450 -78 711 -252 467
-310 1013 -945 1526 -1773 51 -82 97 -154 101 -159 4 -5 -6 34 -22 85 -100
316 -154 648 -166 1004 -25 794 226 1531 706 2072 l87 98 -215 0 c-230 1 -314
11 -498 61 -326 88 -619 285 -821 551 -276 364 -768 1230 -1389 2446 -101 199
-182 353 -178 342z"/>
<path d="M12426 9702 c-538 -1080 -1080 -2047 -1411 -2517 -315 -447 -822
-684 -1418 -662 l-157 6 77 -84 c229 -250 427 -586 548 -930 113 -319 162
-594 172 -965 11 -414 -46 -830 -160 -1182 -19 -60 -34 -108 -32 -108 1 0 46
69 98 153 541 866 1073 1481 1550 1795 254 167 468 241 695 242 l107 1 -35 26
c-254 193 -405 551 -451 1073 -22 253 -3 786 41 1146 73 592 248 1400 450
2068 28 93 49 170 47 172 -1 2 -56 -104 -121 -234z"/>
<path d="M7955 5119 c-389 -52 -733 -298 -909 -647 -92 -182 -131 -370 -123
-582 13 -320 129 -582 358 -808 239 -237 602 -366 936 -333 404 41 748 265
935 609 56 102 62 128 14 57 -46 -70 -190 -202 -267 -248 -396 -233 -908 -132
-1178 232 -377 509 -129 1228 484 1403 67 19 104 22 230 23 180 0 243 -14 392
-86 124 -59 235 -147 311 -245 31 -40 58 -71 60 -69 2 2 -15 38 -38 81 -172
311 -466 527 -815 599 -97 20 -295 27 -390 14z"/>
<path d="M8018 2232 c-96 -233 -251 -557 -351 -734 -31 -55 -51 -100 -46 -105
18 -18 188 -393 257 -564 70 -176 155 -424 168 -494 3 -20 10 -33 14 -28 4 4
19 53 35 108 59 214 184 530 327 827 l81 167 -41 68 c-86 146 -277 545 -368
770 -16 40 -32 73 -35 73 -3 0 -22 -39 -41 -88z"/>
</g>
</svg>
