<?xml version="1.0" standalone="no"?>
<!DOCTYPE svg PUBLIC "-//W3C//DTD SVG 20010904//EN"
 "http://www.w3.org/TR/2001/REC-SVG-20010904/DTD/svg10.dtd">
<svg version="1.0" xmlns="http://www.w3.org/2000/svg"
 width="3000.000000pt" height="3000.000000pt" viewBox="0 0 3000.000000 3000.000000"
 preserveAspectRatio="xMidYMid meet">

<g transform="translate(0.000000,3000.000000) scale(0.100000,-0.100000)"
fill="#000000" stroke="none">
<path d="M15100 29460 c0 -97 -394 -2321 -706 -3980 -378 -2015 -831 -4236
-1005 -4932 -155 -617 -361 -1220 -590 -1727 -372 -820 -867 -1508 -1389
-1928 -128 -103 -298 -218 -402 -271 l-77 -39 157 -6 c371 -15 677 -95 1017
-266 304 -154 518 -312 801 -595 234 -235 395 -433 591 -726 612 -920 1110
-2213 1447 -3763 71 -326 146 -730 153 -830 3 -43 9 -80 13 -82 4 -2 10 35 13
83 6 104 77 491 153 839 337 1550 835 2843 1447 3763 196 293 357 491 591 726
283 283 497 441 801 595 340 171 646 251 1017 266 l157 6 -77 39 c-255 130
-588 405 -849 703 -668 758 -1189 1856 -1532 3223 -174 696 -627 2917 -1005
4932 -292 1557 -706 3883 -706 3969 0 22 -4 43 -10 46 -6 4 -10 -14 -10 -45z"/>
<path d="M6813 18669 c3 -9 23 -74 45 -145 285 -911 592 -2172 761 -3124 147
-833 218 -1481 243 -2219 39 -1170 -143 -2039 -540 -2581 -77 -105 -222 -251
-319 -322 -46 -33 -83 -61 -83 -62 0 0 98 -1 218 -1 185 -1 234 -4 332 -23
462 -93 960 -370 1510 -840 183 -157 621 -597 807 -812 552 -636 1077 -1365
1635 -2271 60 -99 111 -179 113 -179 1 0 -17 58 -41 130 -146 436 -259 990
-310 1515 -21 228 -30 810 -15 1031 38 543 126 998 286 1479 228 685 609 1346
1057 1835 62 67 122 134 132 148 l20 25 -65 -7 c-352 -41 -790 -16 -1148 65
-693 158 -1281 537 -1697 1095 -103 138 -375 550 -524 794 -62 102 -123 201
-135 220 -40 61 -253 426 -400 685 -467 822 -956 1741 -1563 2940 -178 352
-321 633 -319 624z"/>
<path d="M23351 18292 c-446 -895 -984 -1923 -1409 -2692 -228 -413 -598
-1058 -677 -1180 -12 -19 -73 -118 -135 -220 -149 -244 -421 -656 -524 -794
-416 -558 -1004 -937 -1697 -1095 -358 -81 -796 -106 -1148 -65 l-65 7 20 -25
c10 -14 70 -81 132 -148 448 -489 829 -1150 1057 -1835 160 -481 248 -936 286
-1479 15 -221 6 -803 -15 -1031 -51 -525 -164 -1079 -310 -1515 -24 -72 -42
-130 -41 -130 2 0 53 80 113 179 558 906 1083 1635 1635 2271 186 215 624 655
807 812 550 470 1048 747 1510 840 98 19 147 22 332 23 120 0 218 1 218 1 0 1
-37 29 -82 62 -98 71 -243 217 -320 322 -397 542 -579 1411 -540 2581 29 864
129 1674 333 2694 168 841 457 1979 683 2690 19 60 34 110 33 112 -2 1 -90
-172 -196 -385z"/>
<path d="M15050 9610 c-802 -52 -1544 -565 -1872 -1294 -140 -310 -202 -599
-202 -936 0 -337 62 -626 202 -936 259 -576 788 -1032 1403 -1209 957 -276
1961 98 2506 932 61 92 165 287 178 333 4 14 -24 -20 -62 -75 -111 -163 -285
-333 -458 -450 -89 -60 -286 -155 -390 -189 -508 -164 -1035 -92 -1475 202
-141 94 -334 283 -432 422 -362 515 -407 1192 -117 1750 161 309 455 591 769
738 510 239 1107 211 1583 -74 189 -113 397 -309 520 -489 79 -114 79 -97 -1
58 -321 633 -924 1075 -1625 1192 -92 15 -331 36 -387 33 -14 0 -77 -4 -140
-8z"/>
<path d="M15076 4287 c-64 -160 -273 -632 -379 -855 -149 -313 -400 -782 -418
-782 -5 0 36 -89 90 -197 311 -623 588 -1325 708 -1794 15 -60 30 -109 33
-109 3 0 18 49 33 109 120 469 397 1171 708 1794 54 108 95 197 90 197 -18 0
-269 469 -418 782 -106 223 -315 695 -379 855 -16 40 -31 73 -34 73 -3 0 -18
-33 -34 -73z"/>
</g>
</svg>
